<?xml version="1.0" standalone="no"?>
<!DOCTYPE svg PUBLIC "-//W3C//DTD SVG 20010904//EN"
 "http://www.w3.org/TR/2001/REC-SVG-20010904/DTD/svg10.dtd">
<svg version="1.0" xmlns="http://www.w3.org/2000/svg"
 width="1664.000000pt" height="1628.000000pt" viewBox="0 0 1664.000000 1628.000000"
 preserveAspectRatio="xMidYMid meet">

<g transform="translate(0.000000,1628.000000) scale(0.100000,-0.100000)"
fill="#000000" stroke="none">
<path d="M8113 16255 c-142 -26 -245 -71 -823 -359 -2789 -1393 -7133 -3575
-7167 -3599 -73 -52 -113 -125 -113 -205 1 -112 77 -198 290 -324 80 -47 420
-246 755 -443 336 -197 748 -440 917 -541 169 -101 392 -233 495 -292 526
-303 668 -386 1578 -927 160 -95 598 -354 975 -575 710 -418 1131 -665 1405
-828 88 -52 250 -147 360 -210 247 -142 378 -223 372 -229 -7 -6 -89 29 -402
172 -228 104 -1162 524 -1960 880 -115 52 -471 211 -790 353 -319 143 -645
287 -725 322 -128 54 -288 127 -579 261 -138 64 -122 155 -119 -708 4 -855 0
-811 98 -1009 106 -216 227 -343 455 -478 83 -48 503 -296 935 -551 432 -254
922 -543 1090 -642 168 -99 526 -310 795 -468 270 -159 612 -360 760 -448 149
-88 333 -196 410 -242 77 -45 266 -156 420 -247 336 -198 398 -230 512 -264
164 -48 403 -43 563 11 106 36 197 83 386 196 152 92 1551 918 3804 2246 443
261 839 500 880 532 137 105 271 315 337 526 l28 90 3 748 c3 705 2 747 -15
747 -9 0 -51 -16 -93 -35 -104 -48 -960 -427 -1095 -485 -60 -26 -193 -85
-295 -132 -262 -121 -520 -235 -700 -311 -85 -36 -261 -113 -390 -172 -207
-95 -478 -216 -1595 -713 -392 -175 -407 -175 -105 -1 107 61 326 189 485 284
160 94 340 200 400 235 61 34 202 118 315 185 302 180 831 493 1057 626 158
93 2054 1209 4131 2433 309 182 391 240 439 310 29 42 33 56 33 112 0 77 -20
121 -80 181 -45 46 -504 278 -4350 2204 -3015 1509 -3450 1725 -3526 1748
-169 50 -402 65 -561 36z"/>
<path d="M15249 10185 c-14 -8 -32 -28 -39 -44 -9 -24 -10 -412 -5 -1856 l8
-1825 -147 0 c-143 0 -148 -1 -171 -25 l-25 -24 0 -1331 c0 -1317 0 -1330 20
-1350 29 -29 110 -28 136 1 18 20 19 49 24 651 l5 630 24 19 c29 24 43 24 72
0 l24 -19 5 -630 c6 -729 -3 -672 105 -672 110 0 99 -65 105 660 l5 632 28 24
c35 30 39 30 74 0 l28 -24 5 -632 c6 -725 -5 -660 105 -660 108 0 99 -57 105
672 l5 630 24 19 c29 24 43 24 72 0 l24 -19 5 -630 c5 -602 6 -631 24 -651 26
-29 107 -30 136 -1 20 20 20 33 20 1350 l0 1331 -25 24 c-23 24 -28 25 -170
25 l-146 0 6 263 c3 144 10 663 15 1152 6 490 15 1193 20 1563 11 737 12 724
-46 751 -39 17 -421 14 -455 -4z"/>
<path d="M3450 1800 l0 -130 45 0 c61 0 102 -19 151 -71 23 -24 144 -177 269
-339 125 -162 232 -300 237 -307 6 -8 -57 -90 -204 -265 -117 -139 -230 -269
-251 -289 -58 -57 -100 -73 -199 -77 l-88 -4 0 -129 0 -129 465 0 465 0 0 130
0 130 -69 0 c-105 0 -146 24 -121 70 8 15 217 266 260 313 4 4 48 -47 97 -115
143 -195 150 -211 113 -248 -15 -15 -33 -20 -70 -20 l-50 0 0 -130 0 -130 525
0 525 0 0 130 0 130 -57 0 c-67 0 -125 25 -170 72 -32 34 -491 672 -500 695
-3 7 95 130 218 273 250 291 262 301 382 308 l67 4 0 129 0 129 -425 0 -425 0
0 -130 0 -130 63 0 c68 0 107 -18 107 -49 0 -20 -237 -296 -254 -296 -18 0
-185 238 -192 274 -9 46 20 71 82 71 l44 0 0 130 0 130 -520 0 -520 0 0 -130z"/>
<path d="M6570 1801 l0 -128 90 -5 c103 -6 134 -21 144 -69 10 -52 7 -1195 -4
-1223 -14 -37 -44 -48 -142 -54 l-88 -5 0 -128 0 -129 985 0 985 0 0 385 0
385 -150 0 -149 0 -5 -32 c-2 -18 -9 -67 -15 -108 -23 -170 -80 -286 -161
-327 -61 -31 -206 -44 -445 -41 l-190 3 0 290 0 290 83 -2 c150 -3 198 -52
210 -220 l7 -88 118 -3 117 -3 0 431 0 430 -115 0 -114 0 -5 -32 c-3 -18 -7
-57 -10 -86 -12 -119 -78 -174 -214 -176 l-77 -1 0 255 0 255 230 -1 c260 0
321 -9 392 -57 85 -57 131 -137 173 -302 l18 -70 146 -3 146 -3 0 351 0 350
-980 0 -980 0 0 -129z"/>
<path d="M10885 1843 c-10 -68 -52 -208 -80 -267 -54 -115 -146 -183 -257
-194 l-58 -5 0 -123 0 -124 90 0 90 0 0 -327 c0 -358 10 -492 39 -559 45 -101
167 -192 301 -225 90 -23 300 -18 385 8 136 43 206 108 247 232 18 55 22 97
26 243 l4 178 -120 0 -120 0 -4 -163 c-4 -178 -16 -224 -64 -246 -66 -30 -119
4 -134 88 -6 29 -10 215 -10 412 l0 359 195 0 195 0 0 125 0 125 -195 0 -195
0 0 255 0 255 -164 0 -164 0 -7 -47z"/>
<path d="M12335 1424 c-229 -24 -411 -126 -482 -273 -23 -46 -28 -72 -31 -151
-9 -230 89 -315 526 -456 275 -89 320 -121 298 -210 -14 -54 -122 -82 -247
-64 -137 20 -230 83 -285 196 l-26 54 -124 0 -124 0 0 -240 0 -240 100 0 100
0 25 50 25 49 73 -34 c107 -52 251 -85 392 -92 324 -16 554 83 643 276 35 75
43 213 17 292 -52 157 -122 203 -493 325 -265 88 -321 120 -322 185 0 64 98
107 221 95 126 -11 231 -66 294 -153 l30 -42 113 0 112 -1 0 205 0 205 -105 0
-105 0 -17 -35 c-9 -19 -20 -35 -23 -35 -3 0 -42 13 -86 29 -45 16 -118 37
-163 45 -85 16 -267 27 -336 20z"/>
<path d="M9215 1405 c-265 -50 -401 -157 -413 -326 -8 -122 48 -209 156 -240
73 -22 188 -16 245 11 145 69 149 256 7 330 l-35 18 40 19 c60 27 206 25 260
-4 48 -26 90 -68 104 -106 18 -47 13 -143 -8 -186 -34 -66 -94 -91 -346 -141
-289 -58 -388 -109 -446 -226 -31 -62 -34 -75 -34 -163 0 -122 20 -182 83
-252 86 -96 219 -137 407 -126 156 9 286 56 376 135 l46 41 64 -63 c94 -91
147 -110 309 -111 140 0 204 15 282 64 94 60 128 157 128 369 l0 142 -90 0
-90 0 0 -103 c0 -124 -8 -140 -65 -135 l-40 3 -6 360 c-4 223 -11 379 -18 410
-16 68 -53 127 -104 168 -59 49 -96 65 -206 94 -86 23 -119 26 -311 29 -160 3
-235 0 -295 -11z m365 -1015 c-62 -121 -255 -116 -289 7 -21 76 24 124 199
215 l105 55 3 -118 c2 -104 0 -124 -18 -159z"/>
<path d="M5600 710 l0 -220 410 0 410 0 0 220 0 220 -410 0 -410 0 0 -220z"/>
</g>
</svg>
